<svg id="Livello_1" data-name="Livello 1" xmlns="http://www.w3.org/2000/svg" xmlns:xlink="http://www.w3.org/1999/xlink" viewBox="0 0 64 64"><defs><style>.cls-1{fill:none;}.cls-2{fill:#140200;}.cls-3{clip-path:url(#clip-path);}.cls-4{clip-path:url(#clip-path-2);}.cls-5{isolation:isolate;}.cls-6{clip-path:url(#clip-path-3);}.cls-7{fill:#f3dbd3;}</style><clipPath id="clip-path"><polygon class="cls-1" points="48.61 53.41 39.58 59.09 11.27 57.92 11.27 3.55 48.05 3.55 48.05 41.46 48.78 49.26 48.61 53.41"/></clipPath><clipPath id="clip-path-2"><rect class="cls-1" x="-84.18" y="7.75" width="259.71" height="78.99"/></clipPath><clipPath id="clip-path-3"><rect class="cls-1" x="-84.18" y="7.56" width="259.71" height="79.37"/></clipPath></defs><rect class="cls-2" width="64" height="64"/><g class="cls-3"><g class="cls-4"><g class="cls-5"><g class="cls-6"><path class="cls-7" d="M128.69,72.13l.54-.21c.22-1.17.51-2.33.65-3.51.28-2.39-.09-3-2.29-3.89-.5-.2-1.37-.38-1.62-.12a2.15,2.15,0,0,0-.51,1.77,26.68,26.68,0,0,0,1.68,4.44c.3.61,1,1,1.55,1.52m-62.26-28A26.67,26.67,0,0,0,65.85,41a1.83,1.83,0,0,0-1.08-1,1.5,1.5,0,0,0-1.21.58A10,10,0,0,0,61.73,48a2.52,2.52,0,0,0,1.62,1.51,1.92,1.92,0,0,0,1.59-.93c.66-1.53,1.08-3.17,1.49-4.42m90.88-13.43c3.56.06,4.39-.87,3.54-3.91a8.8,8.8,0,0,0-1.71-3.13c-1.07-1.3-2.56-1.29-3.21.21a22.19,22.19,0,0,0-1.26,5.65c0,.3.7.88,1.18,1.06a4.22,4.22,0,0,0,1.46.12m-2.25,25.85-.21-.72c-.64-.25-1.27-.55-1.93-.74-2.8-.81-5.2-2.1-6.46-4.92a3.11,3.11,0,0,0-.47-.67c-1.08-1.3-1.4-1.22-2.38.19-2.48,3.59-5.7,6-10.21,6.48-1.1.11-2.19.31-3.31.47,1.09,1.93,2,3.62,3,5.23a3.44,3.44,0,0,0,4.06,1.79c4.43-1.28,8.87-2.54,13.21-4.09,1.71-.61,3.16-2,4.73-3M33.94,29.93h0c0-1,.07-2,0-2.95a2.31,2.31,0,0,0-2.35-2.28c-2.15-.21-3.05.45-3.95,3.26a23.7,23.7,0,0,0,.5,15.66,14.71,14.71,0,0,0,2.37,4.09,8.55,8.55,0,0,0,2.58,1.5,8.72,8.72,0,0,0,.81-2.54c0-1.91-.4-3.82-.38-5.72,0-3.67.26-7.35.4-11m87.35,26c.68.9,1.43,1.75,2,2.7,1.23,2,3.57,1.79,5.26,2.83a2.63,2.63,0,0,0,.64-.8c0-.1-.16-.44-.33-.53-2.24-1.21-3.18-3.33-4-5.56a2,2,0,0,0-1.13-1.13c-4.2-1.33-5.57-5-6.8-8.54-2.28-6.61-.85-12.8,2.73-18.58,2.73-4.42,7.07-6.09,12-6.54,2.51-.23,5.05-.11,7.58-.17a2.9,2.9,0,0,1,3,2.14,14,14,0,0,1,.33,7.48c-.34,1.68-1.66,1.49-2.79,1.71-2.64.5-3.45,0-4.14-2.56-.16-.59-.3-1.18-.43-1.77-.54-2.38-1.65-3.56-3.56-3.74-1.53-.15-3.64,1.43-4.37,3.2a12.31,12.31,0,0,0-.79,7.11c1,5,1.62,10.07,5.73,13.69a3.71,3.71,0,0,0,2.42,1,32.89,32.89,0,0,0,7.21-1.34c3-1,3.9-3.09,2.72-6-1.94-4.83.15-9.06,1.63-13.37,2.82-8.23,13-10.68,19.65-7.53,5.29,2.52,6.44,7.72,5.29,12.54A3.9,3.9,0,0,1,167,34.84a48.23,48.23,0,0,0-10.33.36c-1.43.21-2.06.73-1.84,2a29.52,29.52,0,0,0,1.39,6.53,6.87,6.87,0,0,0,8.53,3.72,38,38,0,0,0,4.51-1.94c1.36-.64,2.52-1.46,1.75-3.53,1.64.29,3,.48,4.35.85.16,0,.31,1.31,0,1.52-2.25,1.9-4.59,3.7-6.91,5.52a62.48,62.48,0,0,0-5.57,4.35,34,34,0,0,1-17.34,8.92c-3.33.7-6.66,1.39-10,2A1.86,1.86,0,0,0,133.8,67c-.58,3.74-1.28,7.47-1.89,11.21a6.77,6.77,0,0,0,1.92,5.88,25.1,25.1,0,0,1,1.82,2.68,54.2,54.2,0,0,0-6.46-3.29c-9.43-3.27-18.77-6.94-28.78-8.18a53,53,0,0,0-16.1.19,42.16,42.16,0,0,1-5.74.42c-4.61.2-9.25.12-13.83.56-4.75.46-9.46,1.31-14.16,2.15a59.35,59.35,0,0,1-12.43,1.12,34.39,34.39,0,0,0-9.23,1.38c-5.49,1.4-11.07,1.55-16.67,1.87-6.79.37-13.56,1.19-20.35,1.67A45.26,45.26,0,0,1-15,84.4c-5.31-.45-10.61-.91-15.9-1.53-3.26-.39-6.5-1-9.74-1.63-5.35-1-10.72-1.85-16-3-2.88-.61-5.68-1.66-8.5-2.54a7.19,7.19,0,0,1-1.22-.65l.16-.42,2.12.56c3.07.79,6.16,1.52,9.22,2.36a26.4,26.4,0,0,0,11.09.34,14.83,14.83,0,0,1,5.85.62c5.79,1.61,11.45.46,17.15-.47a34,34,0,0,1,7-.84c8.07.4,16-.87,24-1.73,6.06-.65,12.14-1.17,18.21-1.76.93-.09,1.85-.27,2.77-.43,2.36-.41,4.65-.9,7.15-.4,1.63.33,3.48-.22,5.19-.58A73.23,73.23,0,0,1,59.87,71c2.85.06,5.72-.43,8.56-.28,6,.3,12.06-.43,18,.74a26.61,26.61,0,0,0,5.42.5c8.14-.13,15.7,2.17,23.14,5.2,2.06.84,4.31,1.22,6.44,1.94,1.54.52,3,1.24,4.53,1.88,1.15.5,2.26,1.09,3.44,1.48,1,.33,1.42,0,1.18-1.2a50.28,50.28,0,0,1-.82-5.46,2.37,2.37,0,0,0-1.47-2.33c-4.77-2-9.46-4.15-14.33-5.8a74,74,0,0,0-10.9-2.4,4.75,4.75,0,0,0-3.28.5c-3.65,2.6-7.66,2.74-11.84,2.3-1.82-.19-3.64-.35-5.46-.51v-.46a7.3,7.3,0,0,1,1.48,0,9.84,9.84,0,0,0,6.4-1c.43-.2.69-.74,1-1.12-.45-.24-.9-.67-1.36-.7q-3-.16-6.09-.13c-3.35,0-6.71,0-10,.23-4.7.31-9.39.83-14.08,1.25-.93.08-1.87,0-2.79.17q-4.06.54-8.12,1.17c-2.49.38-5,.85-7.46,1.2-4.83.67-9.66,1.53-14.52,1.88-9.08.65-18.14,1.94-27.3,1.27a28.09,28.09,0,0,0-5.88.65c-10.36,1.48-20.62.69-30.82-1.3-6-1.17-12.09-2.18-18-3.66-4.62-1.15-9.09-2.9-13.62-4.38a2.56,2.56,0,0,1-1.4-.87c2.32.48,4.69.8,7,1.48a44.23,44.23,0,0,0,14.1,2c2.66-.07,5.32.78,8,1,7.45.67,14.89,1.15,22.33-.45a40.58,40.58,0,0,1,8-.59,116,116,0,0,0,20-1.46,218.8,218.8,0,0,1,22.72-2.62c9.68-.71,19.4-1,29.1-1.4,3.63-.16,7.27,0,10.88-.29,5.9-.47,11.57.78,17.3,1.86,3.12.58,6.32.71,9.48,1.07a2.45,2.45,0,0,0,2.76-1.79,36.51,36.51,0,0,0,2.27-18.92c-.39-3.15-.67-6.31-1-9.46a22.75,22.75,0,0,0-.43-3.09A3.48,3.48,0,0,0,99,26.64c-1.67.05-2.27,1.18-2.44,2.59a77.09,77.09,0,0,0-.75,7.86C95.71,41,95.86,45,96.08,49a5.65,5.65,0,0,0,1.17,2.35c.76,1.21,1.61,2.37,2.43,3.55-1.43.57-2.85,1.57-4.29,1.61-4.34.12-8.68-.09-13-.31a2.94,2.94,0,0,1-1.86-1.25,1.2,1.2,0,0,0-1.76-.52A37.29,37.29,0,0,1,74,56.25c-2.37.68-3.57.07-4.76-2.06s-2-2.16-3.61-.56a10.57,10.57,0,0,1-14.74.13,3.11,3.11,0,0,0-3.25-1c-2.61.83-5.18,1.75-7.76,2.65-.62.22-1.2.55-1.82.75-2.09.66-2.72.37-3.66-1.58s-1-1.92-2.42-.51C28.14,57.87,21.13,57,18.45,52.3a20.89,20.89,0,0,1-2.28-6.47,31.74,31.74,0,0,1,1.54-16.39,12.09,12.09,0,0,1,7.89-7.81c2.28-.77,4.62-1.41,7-2a1.76,1.76,0,0,0,1.58-1.92,4.75,4.75,0,0,0-5.59-4.93A43.79,43.79,0,0,0,24.27,14a9,9,0,0,1-7.88-1.12,19.53,19.53,0,0,1-1.79-1.66,5.28,5.28,0,0,1,1.44,0c3.33,1.41,6.56.88,9.75-.45q2.37-1,4.71-2a13.05,13.05,0,0,1,11,.45,7.07,7.07,0,0,1,3.83,7.35,34.19,34.19,0,0,0,0,4.41c0,4,0,8,0,12s-.27,8.24-.16,12.34a10.93,10.93,0,0,0,1.37,4.15,2.14,2.14,0,0,0,1.65,1.08c.45,0,1-.95,1.16-1.57a15.52,15.52,0,0,0,.71-3.38c.32-3.54,2.26-5.67,5.49-6.91a75.87,75.87,0,0,0,7.87-3.35c3.44-1.8,4.55-4.47,3.76-8.11-.45-2-3.07-3.94-5.08-3.41A3.71,3.71,0,0,0,60,25.67c-.63,1.32-.75,2.87-1.34,4.22a3,3,0,0,1-1.77,1.54,6.36,6.36,0,0,1-3.41-.06c-.83-.3-1.41-1.33-2.06-2.06-.11-.13,0-.43,0-.65-.18-5.32.08-5.61,5.21-7.25a21.89,21.89,0,0,1,11.21-.69c.86.17,1.75.17,2.62.26,4.75.47,7.14,2.88,7.25,7.7.08,3.23-.28,6.47-.31,9.71s.08,6.45.17,9.68c0,1.25.86,1.87,1.94,2.41a7.49,7.49,0,0,1,2.38,1.88c.88,1.06,1.94,1.32,2.58.11A11.29,11.29,0,0,0,85.83,48c.18-2.78,0-5.6-.11-8.4-.1-3-.32-5.93-.39-8.89a3.61,3.61,0,0,0-2-3.32,12.38,12.38,0,0,1-2.06-2,9.29,9.29,0,0,1,2.51-1.16,17.76,17.76,0,0,0,8.09-2.95c1.66-1.16,2.43-.82,3.75.78,1.74,2.09,1.72,2.05,4.15.84A30.58,30.58,0,0,1,105,20.65a7.22,7.22,0,0,1,3.83.09c3.54,1.11,4.45,2.85,4.44,8.63,0,6.25.31,12.5.47,18.74.06,2,.2,4,.11,5.93a8.14,8.14,0,0,1-2.82,5.42,43.64,43.64,0,0,0-3.23,3.7,1.05,1.05,0,0,0,.57,1.82c1.65.53,3.34,1,5,1.42,1.3.36,2.64.63,3.92,1.07,1.45.5,2.83,1.19,4.28,1.68a1.68,1.68,0,0,0,1.46-.17,1.62,1.62,0,0,0,0-1.5c-2.07-3.54-1.59-7.55-2.34-11.33l.49-.23"/><path class="cls-7" d="M-12.1,44.64c-.17-1.67-.22-2.82-.43-4s-.92-1.45-1.83-.65A27.82,27.82,0,0,0-17,42.51c-2.51,2.82-2,4.86.06,7.45,1.37,1.72,3.15,1.37,3.81-.7a42.62,42.62,0,0,0,1-4.62M3.25,52.7c-3,2.37-5.8,4.13-9.28,4.35a5,5,0,0,1-2.29-.91c-.36-.19-.58-.64-.88-1-2.16-2.35-2.31-2.21-4.87-.52A19.32,19.32,0,0,1-20,57.31c-3.28.82-6.06-.8-7.55-3.83a25,25,0,0,0-1.69-3,1.48,1.48,0,0,0-1.21-.59A1.65,1.65,0,0,0-31.21,51c-.24,1.19-.33,2.4-.5,3.59a2,2,0,0,1-2.31,2c-3.83-.18-7.67-.46-11.5-.49-2.34,0-4.67.49-7,.6-3.88.17-7.77.23-11.65.3-.32,0-.65-.29-1.25-.58,1.24-.92,2.25-1.71,3.32-2.42a3.47,3.47,0,0,0,1.65-3.18c-.11-9.28-.16-18.57-.25-27.85a15.33,15.33,0,0,0-.19-2.14,3.42,3.42,0,0,0-3.39-3,15,15,0,0,0-7.87,2.05,8.75,8.75,0,0,0-2.33,2.25c-.63.9-.9,2-2.4,1.8-.28,0-.84.8-1,1.31a21.47,21.47,0,0,0-.24,11.08c.56,2.6,1.85,5,2.91,7.82-.87-.82-2.09-1.45-2.48-2.43a57.5,57.5,0,0,1-2.21-7.34c-.32-1.27-.31-2.62-.54-3.92-.07-.34-.46-.63-.71-1-.28.28-.75.53-.81.85-.23,1.23-.74,2.6-.42,3.71a78,78,0,0,0,3.78,11,9.51,9.51,0,0,0,7.47,5.63,3.89,3.89,0,0,1,1.84.91,12.57,12.57,0,0,1-6.19-1.31c-9.14-5.17-11.32-14.79-5.3-24A43.33,43.33,0,0,1-76,20.76a36.1,36.1,0,0,1,4.74-4.52A8,8,0,0,1-67,14.57c7.2-.07,14.4.12,21.59.22a8.38,8.38,0,0,1,1.27.31,9.15,9.15,0,0,1-1.27,1.36,8.57,8.57,0,0,0-4.15,8.73c.53,5.34.57,10.74.72,16.11A64,64,0,0,1-49,48.22c-.15,1.78-.21,3.54,1.5,4.54,1.87,1.1,4,1.76,6.12.77,3.21-1.49,5.73-3.67,6.64-7.3a9.06,9.06,0,0,1,.73-2c1-2,2.83-2.17,4.13-.37.53.72,1,1,1.65.17,2-2.63,4.94-4,7.83-5.31a15.71,15.71,0,0,0,7.19-5.8c1.35-2.14,1-6.66-.74-7.92a3.82,3.82,0,0,0-5.87,2.05,12.76,12.76,0,0,0-.61,3.54,2,2,0,0,1-2.18,2.14c-3.64.2-4.69-.78-4.82-4.47s.05-4,3.42-5.61c4.79-2.3,9.87-2,14.88-1.59,3.05.25,5.18,2.5,6.25,5.29A21,21,0,0,1-1.43,33c.15,4.65-.08,9.33-.22,14A4.44,4.44,0,0,0,.89,51.3l2.36,1.4"/></g></g></g></g></svg>