<svg xmlns="http://www.w3.org/2000/svg" viewBox="0 0 48 48"><defs><style>.cls-1{fill:#fbfbfb;}.cls-2{fill:#3f3f3f;}</style></defs><g id="Livello_2" data-name="Livello 2"><g id="Livello_2-2" data-name="Livello 2"><path class="cls-1" d="M48,24a25.08,25.08,0,0,1-.46,4.68c-.15.77-.35,1.53-.57,2.29s-.5,1.49-.8,2.21a23,23,0,0,1-1,2.13c-.37.7-.78,1.37-1.21,2s-.91,1.29-1.41,1.9S41.53,40.41,41,41s-1.14,1.08-1.74,1.58-1.24,1-1.9,1.41-1.32.84-2,1.21a23,23,0,0,1-2.13,1c-.72.3-1.46.57-2.21.8s-1.52.42-2.29.57a23.71,23.71,0,0,1-7,.34,22.94,22.94,0,0,1-2.33-.34c-.77-.15-1.53-.35-2.29-.57s-1.49-.5-2.21-.8a23,23,0,0,1-2.13-1c-.7-.37-1.37-.78-2-1.21s-1.29-.91-1.9-1.41S7.59,41.53,7,41,6,39.83,5.45,39.23,4.48,38,4,37.33s-.84-1.32-1.21-2a23,23,0,0,1-1-2.13c-.3-.72-.57-1.46-.8-2.21S.61,29.45.46,28.68a23.71,23.71,0,0,1-.34-7,22.94,22.94,0,0,1,.34-2.33C.61,18.55.81,17.79,1,17s.5-1.49.8-2.21a23,23,0,0,1,1-2.13c.37-.7.78-1.37,1.21-2S5,9.38,5.45,8.77,6.47,7.58,7,7,8.17,6,8.77,5.45,10,4.48,10.67,4s1.32-.84,2-1.21a23,23,0,0,1,2.13-1c.72-.3,1.46-.57,2.21-.8S18.55.61,19.32.46a23.71,23.71,0,0,1,7-.34,22.94,22.94,0,0,1,2.33.34C29.45.61,30.21.81,31,1s1.49.5,2.21.8a23,23,0,0,1,2.13,1c.7.37,1.37.78,2,1.21s1.29.91,1.9,1.41S40.41,6.47,41,7s1.08,1.14,1.58,1.74,1,1.24,1.41,1.9.84,1.32,1.21,2a23,23,0,0,1,1,2.13c.3.72.57,1.46.8,2.21s.42,1.52.57,2.29A25.08,25.08,0,0,1,48,24Z"/><path class="cls-2" d="M28.38,34.21h-8.3a5.49,5.49,0,0,1-5.48-5.48V20.44A5.49,5.49,0,0,1,20.08,15h8.3a5.49,5.49,0,0,1,5.48,5.48v8.29A5.49,5.49,0,0,1,28.38,34.21Zm-8.3-17.6a3.84,3.84,0,0,0-3.83,3.83v8.29a3.84,3.84,0,0,0,3.83,3.83h8.3a3.84,3.84,0,0,0,3.83-3.83V20.44a3.84,3.84,0,0,0-3.83-3.83Z"/><path class="cls-2" d="M24.23,29.51a4.93,4.93,0,1,1,4.93-4.93A4.93,4.93,0,0,1,24.23,29.51Zm0-8.21a3.28,3.28,0,1,0,3.28,3.28A3.29,3.29,0,0,0,24.23,21.3Z"/><path class="cls-2" d="M30.56,19.37a1.19,1.19,0,1,1-1.19-1.18A1.19,1.19,0,0,1,30.56,19.37Z"/></g></g></svg>