<svg xmlns="http://www.w3.org/2000/svg" width="312.5" height="95.051" viewBox="0 0 312.5 95.051"><g transform="translate(-527 -289.226)"><path d="M251.638,57.962c.82,1.078,1.724,2.1,2.44,3.245,1.472,2.354,4.286,2.157,6.33,3.411a3.332,3.332,0,0,0,.763-.97c.06-.121-.2-.525-.4-.633-2.7-1.456-3.826-4.009-4.834-6.693a2.5,2.5,0,0,0-1.366-1.358c-5.055-1.593-6.7-5.968-8.183-10.274-2.739-7.953-1.015-15.4,3.288-22.362,3.287-5.318,8.511-7.328,14.4-7.865,3.021-.276,6.078-.131,9.118-.2a3.508,3.508,0,0,1,3.606,2.576,16.931,16.931,0,0,1,.4,9c-.416,2.022-2,1.8-3.362,2.062-3.182.605-4.155,0-4.987-3.084-.19-.7-.356-1.411-.515-2.121-.641-2.873-1.985-4.294-4.279-4.509-1.846-.174-4.385,1.72-5.257,3.852a14.832,14.832,0,0,0-.959,8.556c1.147,5.968,1.95,12.122,6.9,16.471a4.437,4.437,0,0,0,2.9,1.229,39.67,39.67,0,0,0,8.681-1.61c3.576-1.234,4.686-3.717,3.27-7.231-2.338-5.81.182-10.9,1.963-16.09,3.4-9.9,15.681-12.854,23.646-9.057,6.362,3.033,7.752,9.284,6.358,15.092a4.671,4.671,0,0,1-4.952,3.2,58.746,58.746,0,0,0-12.436.432c-1.719.252-2.471.885-2.212,2.461.434,2.644.67,5.413,1.672,7.849a8.28,8.28,0,0,0,10.262,4.487,45.533,45.533,0,0,0,5.432-2.346c1.633-.767,3.033-1.746,2.112-4.248,1.966.352,3.628.584,5.233,1.023.193.053.368,1.577.06,1.836-2.711,2.287-5.528,4.45-8.325,6.635a74.818,74.818,0,0,0-6.692,5.242c-5.862,5.773-12.938,9.048-20.863,10.725-4.008.849-8.023,1.673-12.05,2.425a2.236,2.236,0,0,0-2.123,2.14c-.689,4.5-1.536,8.986-2.273,13.483a8.165,8.165,0,0,0,2.318,7.081,28.983,28.983,0,0,1,2.185,3.23c-2.918-1.512-5.224-3.08-7.767-3.963-11.354-3.941-22.594-8.352-34.637-9.846a64.041,64.041,0,0,0-19.366.232,50.978,50.978,0,0,1-6.913.509c-5.547.23-11.123.144-16.64.673-5.709.549-11.379,1.574-17.033,2.579a71.907,71.907,0,0,1-14.956,1.355,40.919,40.919,0,0,0-11.114,1.661c-6.608,1.675-13.316,1.866-20.055,2.241-8.172.454-16.315,1.437-24.483,2.015a53.881,53.881,0,0,1-8.283-.279c-6.382-.54-12.765-1.1-19.126-1.841-3.93-.461-7.824-1.252-11.723-1.954-6.439-1.158-12.9-2.233-19.29-3.6-3.469-.741-6.829-2-10.227-3.057a8.619,8.619,0,0,1-1.462-.782q.093-.254.183-.506c.851.225,1.7.459,2.554.676,3.7.943,7.419,1.823,11.1,2.836a31.684,31.684,0,0,0,13.337.41,17.641,17.641,0,0,1,7.038.751c6.973,1.926,13.779.548,20.634-.571,2.788-.455,5.627-1.144,8.408-1.008,9.712.476,19.243-1.053,28.827-2.083,7.3-.784,14.609-1.4,21.912-2.119,1.115-.11,2.22-.329,3.326-.521,2.846-.494,5.6-1.079,8.608-.477,1.959.392,4.187-.27,6.244-.7a88.275,88.275,0,0,1,19.721-1.536c3.429.062,6.878-.516,10.3-.344,7.235.363,14.517-.52,21.717.9a31.534,31.534,0,0,0,6.512.593c9.8-.146,18.9,2.615,27.842,6.258,2.487,1.013,5.2,1.47,7.751,2.332,1.86.628,3.64,1.5,5.449,2.272,1.384.593,2.724,1.308,4.147,1.781,1.181.392,1.7-.065,1.422-1.443a59.3,59.3,0,0,1-.989-6.581,2.861,2.861,0,0,0-1.771-2.8c-5.739-2.352-11.381-4.988-17.242-6.977a89.794,89.794,0,0,0-13.116-2.891,5.742,5.742,0,0,0-3.95.605c-4.383,3.125-9.218,3.289-14.247,2.762-2.187-.229-4.379-.413-6.568-.617,0-.181,0-.361,0-.542a8.806,8.806,0,0,1,1.785.017,11.872,11.872,0,0,0,7.7-1.15c.513-.243.835-.89,1.244-1.351-.547-.293-1.082-.809-1.643-.84q-3.656-.2-7.326-.161c-4.034.039-8.077.013-12.1.28-5.653.375-11.289,1-16.934,1.5-1.119.1-2.253.057-3.363.2-3.261.433-6.517.909-9.769,1.407-2.994.459-5.972,1.024-8.97,1.443-5.818.813-11.625,1.849-17.474,2.267-10.932.782-21.833,2.328-32.855,1.529-2.327-.169-4.721.437-7.071.774-12.46,1.784-24.8.842-37.083-1.554-7.246-1.413-14.543-2.631-21.7-4.408-5.554-1.378-10.927-3.485-16.38-5.271A3.1,3.1,0,0,1,21.363,65.1c2.792.579,5.643.958,8.362,1.779A53.226,53.226,0,0,0,46.7,69.295c3.19-.083,6.393.935,9.612,1.22,8.964.8,17.914,1.38,26.861-.54a47.784,47.784,0,0,1,9.677-.712,140.475,140.475,0,0,0,24.077-1.758,264.028,264.028,0,0,1,27.341-3.157c11.652-.847,23.342-1.189,35.018-1.688,4.358-.186,8.74.008,13.082-.34,7.11-.57,13.93.936,20.822,2.229,3.751.7,7.6.86,11.406,1.289,1.719.194,2.672-.609,3.318-2.149a43.883,43.883,0,0,0,2.734-22.763c-.465-3.789-.8-7.592-1.217-11.387a24.9,24.9,0,0,0-.517-3.713,4.186,4.186,0,0,0-4.136-3.1c-2.009.054-2.733,1.417-2.934,3.115a91.81,91.81,0,0,0-.909,9.459c-.073,4.757.116,9.525.375,14.277a6.841,6.841,0,0,0,1.406,2.833c.923,1.457,1.944,2.851,2.924,4.272-1.72.678-3.425,1.888-5.162,1.935-5.213.143-10.44-.107-15.654-.369a3.529,3.529,0,0,1-2.234-1.509,1.434,1.434,0,0,0-2.115-.624,44.871,44.871,0,0,1-5.689,2.238c-2.848.813-4.287.086-5.723-2.48-1.361-2.433-2.419-2.6-4.337-.672a12.718,12.718,0,0,1-17.738.152,3.752,3.752,0,0,0-3.916-1.148c-3.134.994-6.229,2.107-9.334,3.191-.746.26-1.445.658-2.2.9-2.515.794-3.27.452-4.4-1.9-1.1-2.3-1.162-2.315-2.915-.617-4.668,4.524-13.1,3.522-16.322-2.184a25.032,25.032,0,0,1-2.75-7.78,38.151,38.151,0,0,1,1.85-19.717,14.546,14.546,0,0,1,9.5-9.4c2.747-.933,5.559-1.7,8.375-2.4a2.1,2.1,0,0,0,1.9-2.306,5.71,5.71,0,0,0-6.726-5.932A52.382,52.382,0,0,0,134.9,7.475a10.867,10.867,0,0,1-9.479-1.348,23.414,23.414,0,0,1-2.153-2.005A6.16,6.16,0,0,1,125,4.14c4.007,1.7,7.892,1.059,11.738-.541q2.836-1.181,5.667-2.378c4.5-1.895,8.883-1.484,13.238.53a8.527,8.527,0,0,1,4.614,8.85,40.579,40.579,0,0,0,.036,5.305c0,4.819,0,9.638-.059,14.456-.058,4.951-.327,9.9-.2,14.848a13.233,13.233,0,0,0,1.643,4.988,2.57,2.57,0,0,0,2,1.3c.536-.058,1.143-1.141,1.385-1.881a18.4,18.4,0,0,0,.863-4.068c.376-4.257,2.716-6.83,6.6-8.321A90.84,90.84,0,0,0,182,33.193c4.138-2.156,5.47-5.369,4.519-9.75-.533-2.455-3.691-4.749-6.1-4.1a4.486,4.486,0,0,0-2.5,2.222c-.758,1.585-.9,3.457-1.612,5.075a3.577,3.577,0,0,1-2.129,1.858,7.739,7.739,0,0,1-4.1-.076c-1-.356-1.691-1.593-2.472-2.482-.135-.152-.036-.513-.044-.776-.209-6.405.1-6.755,6.268-8.727a26.456,26.456,0,0,1,13.494-.832c1.031.206,2.1.209,3.154.315,5.709.574,8.585,3.473,8.721,9.263.09,3.889-.338,7.788-.375,11.683s.1,7.769.211,11.653c.043,1.507,1.027,2.253,2.325,2.9a9.035,9.035,0,0,1,2.863,2.262c1.068,1.285,2.342,1.6,3.115.137a13.686,13.686,0,0,0,1.649-5.372c.208-3.354-.017-6.739-.132-10.109-.121-3.569-.385-7.134-.473-10.7a4.367,4.367,0,0,0-2.4-4,14.625,14.625,0,0,1-2.482-2.373,11.106,11.106,0,0,1,3.021-1.4,21.312,21.312,0,0,0,9.733-3.549c2-1.4,2.924-.982,4.516.939,2.089,2.521,2.062,2.468,4.988,1.011a36.839,36.839,0,0,1,6.343-2.734,8.574,8.574,0,0,1,4.613.117c4.258,1.324,5.353,3.424,5.338,10.383-.017,7.515.368,15.031.571,22.548.063,2.377.231,4.759.121,7.129-.124,2.638-1.522,4.694-3.386,6.525a50.511,50.511,0,0,0-3.89,4.456,1.259,1.259,0,0,0,.682,2.18c1.989.648,4.021,1.158,6.04,1.712,1.574.432,3.181.76,4.722,1.288,1.741.6,3.4,1.427,5.146,2.02a2.024,2.024,0,0,0,1.766-.2,1.962,1.962,0,0,0,.056-1.808c-2.49-4.257-1.916-9.08-2.817-13.624l.585-.281m40.635.8-.248-.864c-.775-.3-1.531-.664-2.327-.893-3.361-.968-6.254-2.523-7.768-5.913a3.655,3.655,0,0,0-.567-.809c-1.3-1.56-1.681-1.47-2.861.234-2.988,4.314-6.866,7.266-12.283,7.791-1.327.129-2.642.371-3.989.566,1.312,2.33,2.369,4.356,3.572,6.293,1.106,1.785,2.776,2.765,4.888,2.153,5.326-1.542,10.675-3.047,15.89-4.915,2.067-.74,3.8-2.4,5.692-3.641M146.544,26.69l.038,0c0-1.186.089-2.381-.022-3.558a2.784,2.784,0,0,0-2.826-2.739c-2.58-.254-3.666.536-4.748,3.926a28.548,28.548,0,0,0,.593,18.841,17.424,17.424,0,0,0,2.854,4.916c.706.87,2.054,1.221,3.112,1.806a10.511,10.511,0,0,0,.972-3.055c0-2.294-.479-4.59-.454-6.881.048-4.421.309-8.838.481-13.257m148.444.972c4.276.067,5.276-1.048,4.259-4.7a10.676,10.676,0,0,0-2.059-3.769c-1.285-1.561-3.08-1.551-3.87.251a26.892,26.892,0,0,0-1.514,6.8c-.054.363.844,1.059,1.423,1.278a5.1,5.1,0,0,0,1.762.142M185.627,43.825a28.956,28.956,0,0,0-.7-3.829,2.173,2.173,0,0,0-1.3-1.241,1.792,1.792,0,0,0-1.453.7,12.049,12.049,0,0,0-2.2,8.982c.107.721,1.163,1.573,1.953,1.824a2.3,2.3,0,0,0,1.916-1.124,55.656,55.656,0,0,0,1.785-5.315m74.915,33.639.659-.257c.265-1.4.614-2.8.778-4.212.332-2.883-.11-3.633-2.75-4.684-.608-.242-1.653-.455-1.953-.148a2.608,2.608,0,0,0-.615,2.137,32.167,32.167,0,0,0,2.024,5.34c.355.735,1.221,1.224,1.856,1.824" transform="translate(522.589 289.227)" fill="#f3dbd3"/><path d="M105.2,56.217c-3.59,2.849-6.978,4.972-11.167,5.232a5.933,5.933,0,0,1-2.75-1.089c-.436-.236-.7-.775-1.063-1.165-2.6-2.838-2.779-2.671-5.856-.637a23.5,23.5,0,0,1-7.12,3.211c-3.944.983-7.284-.966-9.081-4.611a29.728,29.728,0,0,0-2.039-3.6,1.753,1.753,0,0,0-1.445-.708,1.936,1.936,0,0,0-.945,1.34c-.289,1.422-.4,2.879-.606,4.32-.227,1.592-1.052,2.531-2.769,2.452-4.615-.213-9.23-.562-13.846-.586-2.808-.013-5.614.584-8.43.713-4.67.213-9.348.282-14.023.365-.383.006-.773-.348-1.5-.7,1.5-1.1,2.713-2.057,3.993-2.918a4.152,4.152,0,0,0,1.995-3.815c-.138-11.173-.2-22.348-.306-33.521a18.718,18.718,0,0,0-.225-2.569,4.121,4.121,0,0,0-4.077-3.6A18.034,18.034,0,0,0,14.465,16.8a10.321,10.321,0,0,0-2.8,2.708c-.759,1.077-1.089,2.39-2.885,2.16-.344-.044-1.02.961-1.218,1.584a25.792,25.792,0,0,0-.29,13.333c.676,3.128,2.222,6.067,3.5,9.408-1.051-.986-2.517-1.755-2.987-2.923a68.828,68.828,0,0,1-2.658-8.842c-.386-1.526-.375-3.149-.653-4.708-.075-.418-.555-.764-.849-1.143-.337.337-.9.63-.972,1.017-.283,1.48-.89,3.126-.508,4.461A93.276,93.276,0,0,0,6.687,47.1a11.433,11.433,0,0,0,8.987,6.765,4.62,4.62,0,0,1,2.214,1.1,15.029,15.029,0,0,1-7.442-1.574C-.558,47.164-3.181,35.6,4.072,24.533a52.421,52.421,0,0,1,5.787-6.745,42.614,42.614,0,0,1,5.7-5.445,9.659,9.659,0,0,1,5.167-2c8.658-.093,17.32.133,25.98.262a9.057,9.057,0,0,1,1.52.368,10.772,10.772,0,0,1-1.53,1.645,10.31,10.31,0,0,0-4.986,10.5c.635,6.426.682,12.915.862,19.38a75.055,75.055,0,0,1-.267,8.32c-.179,2.148-.251,4.263,1.805,5.471,2.258,1.326,4.808,2.111,7.371.922,3.854-1.785,6.887-4.415,7.98-8.777a11.1,11.1,0,0,1,.878-2.413c1.262-2.423,3.4-2.613,4.98-.445.635.873,1.187,1.237,1.981.207,2.436-3.163,5.939-4.774,9.422-6.385s6.54-3.632,8.653-6.98c1.627-2.578,1.248-8.019-.9-9.54a4.607,4.607,0,0,0-7.061,2.47,15.508,15.508,0,0,0-.729,4.26,2.437,2.437,0,0,1-2.624,2.576c-4.375.241-5.642-.933-5.8-5.379-.164-4.6.057-4.787,4.117-6.743,5.762-2.776,11.877-2.406,17.9-1.916,3.673.3,6.228,3,7.516,6.366a25.228,25.228,0,0,1,1.777,8.042c.178,5.6-.1,11.226-.275,16.838a5.366,5.366,0,0,0,3.057,5.133c.832.482,1.654.981,2.844,1.689M86.73,46.52c-.21-2.009-.263-3.4-.521-4.75-.282-1.483-1.1-1.75-2.2-.79a35.114,35.114,0,0,0-3.158,2.973c-3.019,3.392-2.4,5.856.074,8.967,1.647,2.07,3.8,1.642,4.591-.847A51.8,51.8,0,0,0,86.73,46.52" transform="translate(527 287.096)" fill="#f3dbd3"/></g></svg>