<svg xmlns="http://www.w3.org/2000/svg" width="178.449" height="54.277" viewBox="0 0 178.449 54.277"><g transform="translate(0 0)"><path d="M152.858,33.1c.468.615.985,1.2,1.393,1.853.841,1.344,2.447,1.232,3.615,1.948a1.9,1.9,0,0,0,.436-.554c.034-.069-.111-.3-.226-.362-1.541-.831-2.185-2.289-2.76-3.822a1.428,1.428,0,0,0-.78-.775c-2.887-.91-3.826-3.408-4.673-5.867-1.564-4.541-.58-8.794,1.877-12.769,1.877-3.037,4.86-4.185,8.224-4.491,1.725-.158,3.471-.075,5.207-.117a2,2,0,0,1,2.059,1.471,9.668,9.668,0,0,1,.228,5.138c-.237,1.155-1.141,1.029-1.92,1.177-1.817.346-2.373,0-2.848-1.761-.109-.4-.2-.806-.294-1.211-.366-1.64-1.133-2.452-2.443-2.575a3.568,3.568,0,0,0-3,2.2,8.47,8.47,0,0,0-.547,4.886c.655,3.408,1.113,6.922,3.942,9.406a2.533,2.533,0,0,0,1.658.7,22.653,22.653,0,0,0,4.957-.919c2.042-.7,2.676-2.122,1.867-4.129-1.335-3.318.1-6.225,1.121-9.188,1.941-5.653,8.954-7.34,13.5-5.172,3.633,1.732,4.427,5.3,3.631,8.618a2.667,2.667,0,0,1-2.827,1.83,33.546,33.546,0,0,0-7.1.247c-.981.144-1.411.505-1.263,1.406a20.53,20.53,0,0,0,.955,4.482,4.728,4.728,0,0,0,5.86,2.562,26,26,0,0,0,3.1-1.339c.933-.438,1.732-1,1.206-2.426,1.122.2,2.072.333,2.988.584.11.03.21.9.034,1.049-1.548,1.306-3.157,2.541-4.754,3.789a42.725,42.725,0,0,0-3.822,2.993,23.332,23.332,0,0,1-11.914,6.124c-2.289.485-4.582.955-6.881,1.385a1.277,1.277,0,0,0-1.212,1.222c-.393,2.572-.877,5.131-1.3,7.7a4.663,4.663,0,0,0,1.324,4.043,16.547,16.547,0,0,1,1.247,1.845,37.016,37.016,0,0,0-4.435-2.263c-6.483-2.25-12.9-4.769-19.779-5.622a36.57,36.57,0,0,0-11.059.132,29.11,29.11,0,0,1-3.948.291c-3.168.131-6.351.082-9.5.384-3.26.314-6.5.9-9.726,1.473a41.061,41.061,0,0,1-8.54.774,23.366,23.366,0,0,0-6.346.948,59.476,59.476,0,0,1-11.452,1.28c-4.667.259-9.316.821-13.981,1.15a30.768,30.768,0,0,1-4.73-.16c-3.644-.308-7.289-.625-10.922-1.051-2.244-.263-4.468-.715-6.694-1.116-3.677-.661-7.364-1.275-11.015-2.055-1.981-.423-3.9-1.141-5.84-1.746a4.922,4.922,0,0,1-.835-.447q.053-.145.1-.289c.486.129.971.262,1.458.386,2.113.538,4.236,1.041,6.338,1.619a18.093,18.093,0,0,0,7.616.234,10.073,10.073,0,0,1,4.019.429c3.982,1.1,7.869.313,11.783-.326a23.319,23.319,0,0,1,4.8-.575c5.546.272,10.988-.6,16.462-1.189,4.166-.448,8.342-.8,12.513-1.21.637-.063,1.268-.188,1.9-.3a12.935,12.935,0,0,1,4.915-.272,9.422,9.422,0,0,0,3.566-.4,50.408,50.408,0,0,1,11.261-.877c1.958.035,3.928-.295,5.879-.2,4.132.207,8.289-.3,12.4.512a18.007,18.007,0,0,0,3.719.338c5.594-.083,10.792,1.493,15.9,3.574,1.42.579,2.967.839,4.426,1.332,1.062.358,2.078.855,3.112,1.3.79.338,1.556.747,2.368,1.017.674.224.971-.037.812-.824a33.86,33.86,0,0,1-.565-3.758,1.634,1.634,0,0,0-1.011-1.6c-3.277-1.343-6.5-2.848-9.846-3.984a51.276,51.276,0,0,0-7.49-1.651,3.279,3.279,0,0,0-2.256.346c-2.5,1.784-5.264,1.878-8.135,1.577-1.249-.131-2.5-.236-3.751-.352,0-.1,0-.206,0-.309a5.029,5.029,0,0,1,1.019.01,6.779,6.779,0,0,0,4.4-.657c.293-.139.477-.508.71-.772-.312-.167-.618-.462-.938-.479q-2.088-.116-4.183-.092c-2.3.022-4.612.008-6.909.16-3.228.214-6.447.57-9.67.857-.639.057-1.286.033-1.92.117-1.862.247-3.722.519-5.578.8-1.71.262-3.41.585-5.122.824-3.322.464-6.638,1.056-9.978,1.295-6.243.447-12.467,1.329-18.762.873a19.318,19.318,0,0,0-4.038.442A63.129,63.129,0,0,1,44.072,43.3c-4.138-.807-8.3-1.5-12.392-2.517-3.171-.787-6.24-1.99-9.353-3.01a1.772,1.772,0,0,1-.964-.6c1.594.331,3.223.547,4.775,1.016A30.394,30.394,0,0,0,35.83,39.57c1.822-.048,3.651.534,5.489.7,5.119.454,10.229.788,15.339-.309a27.286,27.286,0,0,1,5.526-.406,80.216,80.216,0,0,0,13.749-1,150.769,150.769,0,0,1,15.613-1.8c6.654-.484,13.329-.679,20-.964,2.489-.106,4.991,0,7.47-.194,4.06-.325,7.955.535,11.89,1.273,2.142.4,4.341.491,6.513.736a1.678,1.678,0,0,0,1.895-1.227,25.059,25.059,0,0,0,1.561-13c-.266-2.164-.459-4.335-.7-6.5a14.216,14.216,0,0,0-.3-2.12,2.391,2.391,0,0,0-2.362-1.768c-1.147.031-1.561.809-1.676,1.779a52.427,52.427,0,0,0-.519,5.4c-.042,2.716.066,5.439.214,8.153a3.906,3.906,0,0,0,.8,1.618c.527.832,1.11,1.628,1.67,2.44a9.749,9.749,0,0,1-2.948,1.105c-2.977.082-5.962-.061-8.939-.211a2.015,2.015,0,0,1-1.276-.862.819.819,0,0,0-1.208-.357,25.623,25.623,0,0,1-3.249,1.278c-1.626.464-2.448.049-3.268-1.416-.777-1.389-1.381-1.483-2.477-.384a7.262,7.262,0,0,1-10.129.087,2.143,2.143,0,0,0-2.236-.656c-1.789.568-3.557,1.2-5.33,1.822-.426.149-.825.376-1.254.512-1.436.454-1.867.258-2.51-1.083-.63-1.315-.664-1.322-1.664-.353a6.1,6.1,0,0,1-9.32-1.247,14.294,14.294,0,0,1-1.57-4.443A21.786,21.786,0,0,1,81.69,14.9,8.306,8.306,0,0,1,87.113,9.54c1.569-.533,3.174-.969,4.782-1.372a1.2,1.2,0,0,0,1.083-1.317,3.261,3.261,0,0,0-3.841-3.388,29.912,29.912,0,0,0-2.942.8,6.206,6.206,0,0,1-5.413-.77,13.37,13.37,0,0,1-1.229-1.145,3.517,3.517,0,0,1,.989.011,8.307,8.307,0,0,0,6.7-.309Q88.866,1.381,90.483.7a8.961,8.961,0,0,1,7.559.3,4.869,4.869,0,0,1,2.635,5.054,23.172,23.172,0,0,0,.02,3.03c0,2.752,0,5.5-.034,8.255-.033,2.827-.187,5.656-.111,8.479a7.557,7.557,0,0,0,.938,2.848,1.467,1.467,0,0,0,1.14.74c.306-.033.653-.652.791-1.074a10.509,10.509,0,0,0,.493-2.323,5.285,5.285,0,0,1,3.768-4.751,51.873,51.873,0,0,0,5.41-2.3,4.553,4.553,0,0,0,2.581-5.568,3.229,3.229,0,0,0-3.486-2.343,2.561,2.561,0,0,0-1.426,1.269c-.433.9-.516,1.974-.921,2.9a2.043,2.043,0,0,1-1.216,1.061,4.419,4.419,0,0,1-2.343-.043c-.569-.2-.966-.91-1.411-1.417-.077-.087-.02-.293-.025-.443-.119-3.658.058-3.857,3.579-4.983a15.107,15.107,0,0,1,7.706-.475c.589.117,1.2.12,1.8.18,3.26.328,4.9,1.983,4.98,5.289.052,2.221-.193,4.447-.214,6.671s.058,4.437.121,6.654c.024.86.586,1.286,1.328,1.653a5.159,5.159,0,0,1,1.635,1.291c.61.734,1.337.911,1.779.078a7.815,7.815,0,0,0,.942-3.068c.119-1.915-.01-3.848-.075-5.772-.069-2.038-.22-4.074-.27-6.113a2.494,2.494,0,0,0-1.373-2.282,8.351,8.351,0,0,1-1.417-1.355,6.342,6.342,0,0,1,1.725-.8,12.17,12.17,0,0,0,5.558-2.026c1.142-.8,1.67-.561,2.579.536,1.193,1.44,1.178,1.409,2.848.577A21.037,21.037,0,0,1,141.7,8.862a4.9,4.9,0,0,1,2.634.067c2.431.756,3.057,1.955,3.048,5.929-.01,4.292.21,8.584.326,12.876.036,1.357.132,2.718.069,4.071a5.573,5.573,0,0,1-1.933,3.726,28.843,28.843,0,0,0-2.221,2.545.719.719,0,0,0,.39,1.245c1.136.37,2.3.661,3.449.978.9.246,1.817.434,2.7.735.994.341,1.943.815,2.939,1.154a1.156,1.156,0,0,0,1.008-.116,1.12,1.12,0,0,0,.032-1.032c-1.422-2.431-1.094-5.185-1.609-7.78l.334-.16m23.2.457-.141-.493c-.442-.172-.875-.379-1.329-.51a6.282,6.282,0,0,1-4.436-3.377,2.087,2.087,0,0,0-.324-.462c-.74-.891-.96-.839-1.634.134a9.429,9.429,0,0,1-7.014,4.449c-.758.074-1.509.212-2.278.323.749,1.33,1.353,2.488,2.04,3.593a2.368,2.368,0,0,0,2.791,1.229c3.041-.88,6.1-1.74,9.074-2.807a16.8,16.8,0,0,0,3.25-2.079M92.846,15.24h.022c0-.677.051-1.36-.013-2.032a1.59,1.59,0,0,0-1.614-1.564c-1.474-.145-2.093.306-2.711,2.242a16.3,16.3,0,0,0,.338,10.759,9.95,9.95,0,0,0,1.63,2.807,5.852,5.852,0,0,0,1.777,1.031,6,6,0,0,0,.555-1.745c0-1.31-.273-2.621-.259-3.929.027-2.524.176-5.047.275-7.57m84.767.555c2.442.039,3.013-.6,2.432-2.683a6.1,6.1,0,0,0-1.176-2.152c-.734-.891-1.759-.885-2.21.143a15.356,15.356,0,0,0-.865,3.881c-.031.208.482.6.812.73a2.914,2.914,0,0,0,1.006.081m-62.449,9.23a16.536,16.536,0,0,0-.4-2.187,1.241,1.241,0,0,0-.742-.709,1.024,1.024,0,0,0-.83.4,6.881,6.881,0,0,0-1.259,5.129c.061.412.664.9,1.115,1.042a1.315,1.315,0,0,0,1.094-.642,31.782,31.782,0,0,0,1.019-3.035m42.779,19.209.376-.147c.151-.8.351-1.6.445-2.405.189-1.646-.063-2.074-1.57-2.675-.347-.138-.944-.26-1.115-.085a1.489,1.489,0,0,0-.351,1.22,18.368,18.368,0,0,0,1.156,3.05c.2.42.7.7,1.06,1.042" transform="translate(-11.683 0)" fill="#f3dbd3"/><path d="M60.073,36.529c-2.05,1.627-3.985,2.839-6.377,2.988a3.388,3.388,0,0,1-1.571-.622c-.249-.135-.4-.443-.607-.665-1.487-1.621-1.587-1.525-3.344-.364A13.417,13.417,0,0,1,44.109,39.7a4.418,4.418,0,0,1-5.186-2.633A16.976,16.976,0,0,0,37.76,35.01a1,1,0,0,0-.825-.4,1.105,1.105,0,0,0-.54.765c-.165.812-.229,1.644-.346,2.467a1.4,1.4,0,0,1-1.581,1.4c-2.635-.122-5.271-.321-7.907-.335-1.6-.008-3.206.333-4.814.407-2.667.121-5.338.161-8.008.208-.219,0-.441-.2-.858-.4.855-.628,1.549-1.174,2.28-1.666A2.371,2.371,0,0,0,16.3,35.275c-.079-6.38-.116-12.761-.175-19.142A10.689,10.689,0,0,0,16,14.666a2.353,2.353,0,0,0-2.328-2.056A10.3,10.3,0,0,0,8.26,14.021a5.893,5.893,0,0,0-1.6,1.547c-.434.615-.622,1.365-1.648,1.233-.2-.025-.583.549-.7.9a14.728,14.728,0,0,0-.166,7.614,39.077,39.077,0,0,0,2,5.372c-.6-.563-1.437-1-1.706-1.669a39.3,39.3,0,0,1-1.518-5.049c-.22-.871-.214-1.8-.373-2.688-.043-.239-.317-.436-.485-.653-.193.193-.513.36-.555.581a6.016,6.016,0,0,0-.29,2.547,53.264,53.264,0,0,0,2.6,7.563A6.529,6.529,0,0,0,8.95,35.186a2.638,2.638,0,0,1,1.264.626,8.582,8.582,0,0,1-4.249-.9C-.319,31.36-1.817,24.754,2.325,18.436a29.934,29.934,0,0,1,3.3-3.852,24.334,24.334,0,0,1,3.254-3.109,5.516,5.516,0,0,1,2.95-1.142c4.944-.053,9.89.076,14.835.15a5.172,5.172,0,0,1,.868.21,6.151,6.151,0,0,1-.874.939,5.888,5.888,0,0,0-2.847,6c.362,3.669.389,7.375.492,11.067a42.859,42.859,0,0,1-.153,4.751c-.1,1.227-.143,2.434,1.031,3.124A4.418,4.418,0,0,0,29.4,37.1a7.5,7.5,0,0,0,4.557-5.012,6.338,6.338,0,0,1,.5-1.378c.721-1.383,1.944-1.492,2.844-.254.362.5.678.706,1.131.118,1.391-1.806,3.392-2.726,5.38-3.646a10.88,10.88,0,0,0,4.941-3.986c.929-1.472.713-4.579-.513-5.447A2.631,2.631,0,0,0,44.206,18.9a8.856,8.856,0,0,0-.416,2.432,1.392,1.392,0,0,1-1.5,1.471c-2.5.138-3.222-.533-3.312-3.072-.094-2.625.033-2.734,2.351-3.851,3.29-1.585,6.782-1.374,10.224-1.094a5.172,5.172,0,0,1,4.292,3.635,14.406,14.406,0,0,1,1.015,4.592c.1,3.2-.056,6.41-.157,9.615a3.064,3.064,0,0,0,1.745,2.931c.475.276.944.56,1.624.965M49.526,30.992c-.12-1.147-.15-1.941-.3-2.712-.161-.847-.63-1-1.255-.451a20.05,20.05,0,0,0-1.8,1.7c-1.724,1.937-1.371,3.344.042,5.121.941,1.182,2.168.938,2.622-.484a29.582,29.582,0,0,0,.691-3.171" transform="translate(0 -5.644)" fill="#f3dbd3"/></g></svg>